<svg width="658" height="658" viewBox="0 0 658 658" fill="none" xmlns="http://www.w3.org/2000/svg">
<g clip-path="url(#clip0_2_2)">
<path d="M494.568 587.545L395.906 375.963C421.853 355.758 442.717 328.435 454.771 295.318C488.97 201.359 440.373 97.1068 346.393 62.9011C252.414 28.6953 148.175 77.3199 113.976 171.279C79.7781 265.238 128.395 369.497 222.354 403.696C255.451 415.742 289.773 417.315 321.915 410.465L420.584 622.026C425.143 631.768 433.511 639.467 443.634 643.152C464.824 650.865 488.272 639.899 495.955 618.789C499.632 608.686 499.1 597.299 494.568 587.545ZM229.65 383.649C146.737 353.471 103.845 261.489 134.023 178.575C164.201 95.6613 256.204 52.7769 339.097 82.9475C421.99 113.118 464.903 205.108 434.724 288.022C404.546 370.935 312.564 413.827 229.65 383.649ZM450.924 623.126C446.093 621.368 442.096 617.688 439.929 613.041L342.822 404.794C355.16 400.589 366.999 395.069 378.15 388.321L475.265 596.546C477.404 601.207 477.667 606.661 475.916 611.472C472.238 621.576 461.008 626.797 450.924 623.126Z" fill="#226CE0"/>
<path d="M201.929 225.417L245.564 170.921C249.244 166.318 248.481 159.613 243.899 155.935C239.334 152.303 232.615 152.978 228.892 157.599L180.809 217.636C178.117 220.999 177.71 225.653 179.778 229.431L216.704 296.906C218.518 300.17 221.709 302.119 225.131 302.419C227.171 302.597 229.261 302.202 231.175 301.128C236.348 298.304 238.241 291.831 235.418 286.658L201.929 225.417Z" fill="#226CE0"/>
<path d="M319.41 140.216C313.802 138.226 307.758 141.231 305.855 146.824L248.476 313.123C246.554 318.694 249.493 324.755 255.084 326.679C255.915 326.965 256.778 327.148 257.607 327.221C262.388 327.639 267.005 324.809 268.619 320.068L325.998 153.769C327.921 148.199 325.003 142.14 319.41 140.216Z" fill="#226CE0"/>
<path d="M395.622 229.408L358.695 161.932C355.852 156.737 349.333 154.882 344.226 157.69C339.053 160.514 337.16 166.987 339.984 172.159L373.472 233.402L329.837 287.898C326.158 292.501 326.92 299.206 331.502 302.884C333.202 304.253 335.192 305.005 337.232 305.184C340.654 305.483 344.157 304.119 346.486 301.239L394.569 241.202C397.282 237.84 397.689 233.186 395.622 229.408Z" fill="#226CE0"/>
</g>
<defs>
<clipPath id="clip0_2_2">
<rect width="512" height="512" fill="white" transform="translate(175.996 0.881531) rotate(20)"/>
</clipPath>
</defs>
</svg>
